<svg stroke="currentColor" fill="currentColor" stroke-width="0" viewBox="0 0 400 400" height="1em" width="1em" xmlns="http://www.w3.org/2000/svg"><path id="path0" d="M361.282 0.291 C 360.718 0.419,358.987 0.776,357.436 1.085 C 341.669 4.227,330.619 23.675,336.010 38.796 L 336.769 40.926 294.345 83.347 C 271.012 106.679,251.720 125.682,251.473 125.576 C 251.227 125.469,248.949 124.016,246.410 122.345 C 238.026 116.828,228.086 112.758,217.692 110.588 L 212.051 109.411 212.051 89.250 L 212.051 69.088 215.385 67.073 C 241.180 51.477,230.340 12.062,200.256 12.062 C 169.865 12.062,159.119 53.250,185.783 67.539 L 188.462 68.974 188.462 89.207 L 188.462 109.439 182.821 110.575 C 149.922 117.200,123.513 143.592,116.686 176.667 L 115.522 182.308 95.325 182.439 L 75.128 182.571 73.601 179.619 C 59.782 152.907,18.132 163.994,18.231 194.359 C 18.329 224.584,59.519 235.261,73.629 208.718 L 75.128 205.897 95.325 205.897 L 115.521 205.897 116.663 211.538 C 118.786 222.026,123.124 232.478,129.073 241.442 C 130.629 243.786,131.820 245.793,131.720 245.902 C 131.620 246.011,112.544 265.120,89.328 288.368 L 47.117 330.636 43.465 329.677 C 19.043 323.265,-1.660 348.981,9.558 371.795 C 20.165 393.370,51.668 393.442,62.442 371.917 C 65.800 365.207,66.681 355.424,64.467 349.436 L 63.690 347.334 106.115 304.910 L 148.541 262.487 153.373 265.636 C 162.221 271.402,174.461 276.447,183.237 277.944 C 184.982 278.241,186.929 278.599,187.564 278.739 L 188.718 278.994 188.703 299.112 L 188.687 319.231 185.744 320.915 C 159.227 336.088,169.844 376.410,200.357 376.410 C 230.368 376.410,241.113 335.777,215.002 321.026 L 211.825 319.231 211.810 299.112 L 211.795 278.994 212.949 278.739 C 213.583 278.599,215.599 278.229,217.428 277.916 C 226.077 276.436,238.474 271.294,247.117 265.600 L 251.921 262.435 294.258 304.772 L 336.595 347.109 335.734 350.679 C 328.542 380.473,363.919 400.832,385.400 379.261 C 406.538 358.036,385.898 322.102,356.936 329.706 L 353.172 330.694 311.073 288.387 C 287.919 265.117,268.893 245.995,268.792 245.892 C 268.692 245.789,269.898 243.770,271.471 241.406 C 290.129 213.365,290.295 175.744,271.884 147.754 C 270.285 145.322,268.890 143.132,268.783 142.885 C 268.677 142.639,287.680 123.347,311.012 100.014 L 353.433 57.590 355.563 58.365 C 376.141 65.855,398.679 44.817,393.352 23.092 C 389.881 8.936,373.757 -2.527,361.282 0.291 M212.466 132.560 C 257.597 141.882,277.930 194.607,250.643 231.554 C 221.102 271.551,158.792 262.601,141.388 215.860 C 124.449 170.368,165.064 122.769,212.466 132.560 " stroke="none" fill="currentColor" fill-rule="evenodd"></path></svg>